<?xml version="1.0" encoding="UTF-8" standalone="no"?>
<!DOCTYPE svg PUBLIC "-//W3C//DTD SVG 1.1//EN"
 "http://www.w3.org/Graphics/SVG/1.1/DTD/svg11.dtd">
<!-- Generated by graphviz version 2.49.3 (0)
 -->
<!-- Title: G Pages: 1 -->
<svg width="6127pt" height="78pt"
 viewBox="0.00 0.00 6127.00 78.00" xmlns="http://www.w3.org/2000/svg" xmlns:xlink="http://www.w3.org/1999/xlink">
<g id="graph0" class="graph" transform="scale(1 1) rotate(0) translate(4 74)">
<title>G</title>
<polygon fill="white" stroke="transparent" points="-4,4 -4,-74 6123,-74 6123,4 -4,4"/>
<!-- 139943256324944 -->
<g id="node1" class="node">
<title>139943256324944</title>
<polygon fill="none" stroke="black" points="0,-0.5 0,-69.5 293,-69.5 293,-0.5 0,-0.5"/>
<text text-anchor="middle" x="146.5" y="-54.3" font-family="Times,serif" font-size="14.00">batch_normalization_input: InputLayer</text>
<polyline fill="none" stroke="black" points="0,-46.5 293,-46.5 "/>
<text text-anchor="middle" x="71" y="-31.3" font-family="Times,serif" font-size="14.00">input:</text>
<polyline fill="none" stroke="black" points="142,-23.5 142,-46.5 "/>
<text text-anchor="middle" x="217.5" y="-31.3" font-family="Times,serif" font-size="14.00">output:</text>
<polyline fill="none" stroke="black" points="0,-23.5 293,-23.5 "/>
<text text-anchor="middle" x="73" y="-8.3" font-family="Times,serif" font-size="14.00">[(None, 8, 8)]</text>
<polyline fill="none" stroke="black" points="146,-0.5 146,-23.5 "/>
<text text-anchor="middle" x="219.5" y="-8.3" font-family="Times,serif" font-size="14.00">[(None, 8, 8)]</text>
</g>
<!-- 139946961422848 -->
<g id="node2" class="node">
<title>139946961422848</title>
<polygon fill="none" stroke="black" points="329,-0.5 329,-69.5 642,-69.5 642,-0.5 329,-0.5"/>
<text text-anchor="middle" x="485.5" y="-54.3" font-family="Times,serif" font-size="14.00">batch_normalization: BatchNormalization</text>
<polyline fill="none" stroke="black" points="329,-46.5 642,-46.5 "/>
<text text-anchor="middle" x="405" y="-31.3" font-family="Times,serif" font-size="14.00">input:</text>
<polyline fill="none" stroke="black" points="481,-23.5 481,-46.5 "/>
<text text-anchor="middle" x="561.5" y="-31.3" font-family="Times,serif" font-size="14.00">output:</text>
<polyline fill="none" stroke="black" points="329,-23.5 642,-23.5 "/>
<text text-anchor="middle" x="407" y="-8.3" font-family="Times,serif" font-size="14.00">(None, 8, 8)</text>
<polyline fill="none" stroke="black" points="485,-0.5 485,-23.5 "/>
<text text-anchor="middle" x="563.5" y="-8.3" font-family="Times,serif" font-size="14.00">(None, 8, 8)</text>
</g>
<!-- 139943256324944&#45;&gt;139946961422848 -->
<g id="edge1" class="edge">
<title>139943256324944&#45;&gt;139946961422848</title>
<path fill="none" stroke="black" d="M293.35,-35C301.7,-35 310.12,-35 318.54,-35"/>
<polygon fill="black" stroke="black" points="318.79,-38.5 328.79,-35 318.79,-31.5 318.79,-38.5"/>
</g>
<!-- 139944332041904 -->
<g id="node3" class="node">
<title>139944332041904</title>
<polygon fill="none" stroke="black" points="678,-0.5 678,-69.5 871,-69.5 871,-0.5 678,-0.5"/>
<text text-anchor="middle" x="774.5" y="-54.3" font-family="Times,serif" font-size="14.00">flatten: Flatten</text>
<polyline fill="none" stroke="black" points="678,-46.5 871,-46.5 "/>
<text text-anchor="middle" x="724" y="-31.3" font-family="Times,serif" font-size="14.00">input:</text>
<polyline fill="none" stroke="black" points="770,-23.5 770,-46.5 "/>
<text text-anchor="middle" x="820.5" y="-31.3" font-family="Times,serif" font-size="14.00">output:</text>
<polyline fill="none" stroke="black" points="678,-23.5 871,-23.5 "/>
<text text-anchor="middle" x="728.5" y="-8.3" font-family="Times,serif" font-size="14.00">(None, 8, 8)</text>
<polyline fill="none" stroke="black" points="779,-0.5 779,-23.5 "/>
<text text-anchor="middle" x="825" y="-8.3" font-family="Times,serif" font-size="14.00">(None, 64)</text>
</g>
<!-- 139946961422848&#45;&gt;139944332041904 -->
<g id="edge2" class="edge">
<title>139946961422848&#45;&gt;139944332041904</title>
<path fill="none" stroke="black" d="M642.18,-35C650.8,-35 659.36,-35 667.73,-35"/>
<polygon fill="black" stroke="black" points="667.85,-38.5 677.85,-35 667.85,-31.5 667.85,-38.5"/>
</g>
<!-- 139944332042144 -->
<g id="node4" class="node">
<title>139944332042144</title>
<polygon fill="none" stroke="black" points="907,-0.5 907,-69.5 1100,-69.5 1100,-0.5 907,-0.5"/>
<text text-anchor="middle" x="1003.5" y="-54.3" font-family="Times,serif" font-size="14.00">dense: Dense</text>
<polyline fill="none" stroke="black" points="907,-46.5 1100,-46.5 "/>
<text text-anchor="middle" x="953" y="-31.3" font-family="Times,serif" font-size="14.00">input:</text>
<polyline fill="none" stroke="black" points="999,-23.5 999,-46.5 "/>
<text text-anchor="middle" x="1049.5" y="-31.3" font-family="Times,serif" font-size="14.00">output:</text>
<polyline fill="none" stroke="black" points="907,-23.5 1100,-23.5 "/>
<text text-anchor="middle" x="953" y="-8.3" font-family="Times,serif" font-size="14.00">(None, 64)</text>
<polyline fill="none" stroke="black" points="999,-0.5 999,-23.5 "/>
<text text-anchor="middle" x="1049.5" y="-8.3" font-family="Times,serif" font-size="14.00">(None, 256)</text>
</g>
<!-- 139944332041904&#45;&gt;139944332042144 -->
<g id="edge3" class="edge">
<title>139944332041904&#45;&gt;139944332042144</title>
<path fill="none" stroke="black" d="M871.11,-35C879.65,-35 888.32,-35 896.93,-35"/>
<polygon fill="black" stroke="black" points="897,-38.5 907,-35 897,-31.5 897,-38.5"/>
</g>
<!-- 139944264442544 -->
<g id="node5" class="node">
<title>139944264442544</title>
<polygon fill="none" stroke="black" points="1136,-0.5 1136,-69.5 1338,-69.5 1338,-0.5 1136,-0.5"/>
<text text-anchor="middle" x="1237" y="-54.3" font-family="Times,serif" font-size="14.00">activation: Activation</text>
<polyline fill="none" stroke="black" points="1136,-46.5 1338,-46.5 "/>
<text text-anchor="middle" x="1184" y="-31.3" font-family="Times,serif" font-size="14.00">input:</text>
<polyline fill="none" stroke="black" points="1232,-23.5 1232,-46.5 "/>
<text text-anchor="middle" x="1285" y="-31.3" font-family="Times,serif" font-size="14.00">output:</text>
<polyline fill="none" stroke="black" points="1136,-23.5 1338,-23.5 "/>
<text text-anchor="middle" x="1186.5" y="-8.3" font-family="Times,serif" font-size="14.00">(None, 256)</text>
<polyline fill="none" stroke="black" points="1237,-0.5 1237,-23.5 "/>
<text text-anchor="middle" x="1287.5" y="-8.3" font-family="Times,serif" font-size="14.00">(None, 256)</text>
</g>
<!-- 139944332042144&#45;&gt;139944264442544 -->
<g id="edge4" class="edge">
<title>139944332042144&#45;&gt;139944264442544</title>
<path fill="none" stroke="black" d="M1100.33,-35C1108.64,-35 1117.1,-35 1125.51,-35"/>
<polygon fill="black" stroke="black" points="1125.75,-38.5 1135.75,-35 1125.75,-31.5 1125.75,-38.5"/>
</g>
<!-- 139944264442784 -->
<g id="node6" class="node">
<title>139944264442784</title>
<polygon fill="none" stroke="black" points="1374,-0.5 1374,-69.5 1576,-69.5 1576,-0.5 1374,-0.5"/>
<text text-anchor="middle" x="1475" y="-54.3" font-family="Times,serif" font-size="14.00">dropout: Dropout</text>
<polyline fill="none" stroke="black" points="1374,-46.5 1576,-46.5 "/>
<text text-anchor="middle" x="1422" y="-31.3" font-family="Times,serif" font-size="14.00">input:</text>
<polyline fill="none" stroke="black" points="1470,-23.5 1470,-46.5 "/>
<text text-anchor="middle" x="1523" y="-31.3" font-family="Times,serif" font-size="14.00">output:</text>
<polyline fill="none" stroke="black" points="1374,-23.5 1576,-23.5 "/>
<text text-anchor="middle" x="1424.5" y="-8.3" font-family="Times,serif" font-size="14.00">(None, 256)</text>
<polyline fill="none" stroke="black" points="1475,-0.5 1475,-23.5 "/>
<text text-anchor="middle" x="1525.5" y="-8.3" font-family="Times,serif" font-size="14.00">(None, 256)</text>
</g>
<!-- 139944264442544&#45;&gt;139944264442784 -->
<g id="edge5" class="edge">
<title>139944264442544&#45;&gt;139944264442784</title>
<path fill="none" stroke="black" d="M1338.09,-35C1346.57,-35 1355.19,-35 1363.75,-35"/>
<polygon fill="black" stroke="black" points="1363.76,-38.5 1373.76,-35 1363.76,-31.5 1363.76,-38.5"/>
</g>
<!-- 139944264443264 -->
<g id="node7" class="node">
<title>139944264443264</title>
<polygon fill="none" stroke="black" points="1612,-0.5 1612,-69.5 1850,-69.5 1850,-0.5 1612,-0.5"/>
<text text-anchor="middle" x="1731" y="-54.3" font-family="Times,serif" font-size="14.00">reshape: Reshape</text>
<polyline fill="none" stroke="black" points="1612,-46.5 1850,-46.5 "/>
<text text-anchor="middle" x="1669" y="-31.3" font-family="Times,serif" font-size="14.00">input:</text>
<polyline fill="none" stroke="black" points="1726,-23.5 1726,-46.5 "/>
<text text-anchor="middle" x="1788" y="-31.3" font-family="Times,serif" font-size="14.00">output:</text>
<polyline fill="none" stroke="black" points="1612,-23.5 1850,-23.5 "/>
<text text-anchor="middle" x="1662.5" y="-8.3" font-family="Times,serif" font-size="14.00">(None, 256)</text>
<polyline fill="none" stroke="black" points="1713,-0.5 1713,-23.5 "/>
<text text-anchor="middle" x="1781.5" y="-8.3" font-family="Times,serif" font-size="14.00">(None, 16, 16, 1)</text>
</g>
<!-- 139944264442784&#45;&gt;139944264443264 -->
<g id="edge6" class="edge">
<title>139944264442784&#45;&gt;139944264443264</title>
<path fill="none" stroke="black" d="M1576.02,-35C1584.5,-35 1593.15,-35 1601.81,-35"/>
<polygon fill="black" stroke="black" points="1601.97,-38.5 1611.97,-35 1601.97,-31.5 1601.97,-38.5"/>
</g>
<!-- 139944264443600 -->
<g id="node8" class="node">
<title>139944264443600</title>
<polygon fill="none" stroke="black" points="1886,-0.5 1886,-69.5 2170,-69.5 2170,-0.5 1886,-0.5"/>
<text text-anchor="middle" x="2028" y="-54.3" font-family="Times,serif" font-size="14.00">conv2d_transpose: Conv2DTranspose</text>
<polyline fill="none" stroke="black" points="1886,-46.5 2170,-46.5 "/>
<text text-anchor="middle" x="1954.5" y="-31.3" font-family="Times,serif" font-size="14.00">input:</text>
<polyline fill="none" stroke="black" points="2023,-23.5 2023,-46.5 "/>
<text text-anchor="middle" x="2096.5" y="-31.3" font-family="Times,serif" font-size="14.00">output:</text>
<polyline fill="none" stroke="black" points="1886,-23.5 2170,-23.5 "/>
<text text-anchor="middle" x="1957" y="-8.3" font-family="Times,serif" font-size="14.00">(None, 16, 16, 1)</text>
<polyline fill="none" stroke="black" points="2028,-0.5 2028,-23.5 "/>
<text text-anchor="middle" x="2099" y="-8.3" font-family="Times,serif" font-size="14.00">(None, 24, 24, 2)</text>
</g>
<!-- 139944264443264&#45;&gt;139944264443600 -->
<g id="edge7" class="edge">
<title>139944264443264&#45;&gt;139944264443600</title>
<path fill="none" stroke="black" d="M1850.29,-35C1858.7,-35 1867.24,-35 1875.8,-35"/>
<polygon fill="black" stroke="black" points="1875.85,-38.5 1885.85,-35 1875.85,-31.5 1875.85,-38.5"/>
</g>
<!-- 139944264444752 -->
<g id="node9" class="node">
<title>139944264444752</title>
<polygon fill="none" stroke="black" points="2206,-0.5 2206,-69.5 2480,-69.5 2480,-0.5 2206,-0.5"/>
<text text-anchor="middle" x="2343" y="-54.3" font-family="Times,serif" font-size="14.00">activation_1: Activation</text>
<polyline fill="none" stroke="black" points="2206,-46.5 2480,-46.5 "/>
<text text-anchor="middle" x="2272" y="-31.3" font-family="Times,serif" font-size="14.00">input:</text>
<polyline fill="none" stroke="black" points="2338,-23.5 2338,-46.5 "/>
<text text-anchor="middle" x="2409" y="-31.3" font-family="Times,serif" font-size="14.00">output:</text>
<polyline fill="none" stroke="black" points="2206,-23.5 2480,-23.5 "/>
<text text-anchor="middle" x="2274.5" y="-8.3" font-family="Times,serif" font-size="14.00">(None, 24, 24, 2)</text>
<polyline fill="none" stroke="black" points="2343,-0.5 2343,-23.5 "/>
<text text-anchor="middle" x="2411.5" y="-8.3" font-family="Times,serif" font-size="14.00">(None, 24, 24, 2)</text>
</g>
<!-- 139944264443600&#45;&gt;139944264444752 -->
<g id="edge8" class="edge">
<title>139944264443600&#45;&gt;139944264444752</title>
<path fill="none" stroke="black" d="M2170.39,-35C2178.8,-35 2187.27,-35 2195.69,-35"/>
<polygon fill="black" stroke="black" points="2195.95,-38.5 2205.95,-35 2195.94,-31.5 2195.95,-38.5"/>
</g>
<!-- 139944264444848 -->
<g id="node10" class="node">
<title>139944264444848</title>
<polygon fill="none" stroke="black" points="2516,-0.5 2516,-69.5 2815,-69.5 2815,-0.5 2516,-0.5"/>
<text text-anchor="middle" x="2665.5" y="-54.3" font-family="Times,serif" font-size="14.00">conv2d_transpose_1: Conv2DTranspose</text>
<polyline fill="none" stroke="black" points="2516,-46.5 2815,-46.5 "/>
<text text-anchor="middle" x="2588.5" y="-31.3" font-family="Times,serif" font-size="14.00">input:</text>
<polyline fill="none" stroke="black" points="2661,-23.5 2661,-46.5 "/>
<text text-anchor="middle" x="2738" y="-31.3" font-family="Times,serif" font-size="14.00">output:</text>
<polyline fill="none" stroke="black" points="2516,-23.5 2815,-23.5 "/>
<text text-anchor="middle" x="2590.5" y="-8.3" font-family="Times,serif" font-size="14.00">(None, 24, 24, 2)</text>
<polyline fill="none" stroke="black" points="2665,-0.5 2665,-23.5 "/>
<text text-anchor="middle" x="2740" y="-8.3" font-family="Times,serif" font-size="14.00">(None, 32, 32, 8)</text>
</g>
<!-- 139944264444752&#45;&gt;139944264444848 -->
<g id="edge9" class="edge">
<title>139944264444752&#45;&gt;139944264444848</title>
<path fill="none" stroke="black" d="M2480.39,-35C2488.84,-35 2497.38,-35 2505.91,-35"/>
<polygon fill="black" stroke="black" points="2505.92,-38.5 2515.92,-35 2505.92,-31.5 2505.92,-38.5"/>
</g>
<!-- 139944264445232 -->
<g id="node11" class="node">
<title>139944264445232</title>
<polygon fill="none" stroke="black" points="2851,-0.5 2851,-69.5 3125,-69.5 3125,-0.5 2851,-0.5"/>
<text text-anchor="middle" x="2988" y="-54.3" font-family="Times,serif" font-size="14.00">activation_2: Activation</text>
<polyline fill="none" stroke="black" points="2851,-46.5 3125,-46.5 "/>
<text text-anchor="middle" x="2917" y="-31.3" font-family="Times,serif" font-size="14.00">input:</text>
<polyline fill="none" stroke="black" points="2983,-23.5 2983,-46.5 "/>
<text text-anchor="middle" x="3054" y="-31.3" font-family="Times,serif" font-size="14.00">output:</text>
<polyline fill="none" stroke="black" points="2851,-23.5 3125,-23.5 "/>
<text text-anchor="middle" x="2919.5" y="-8.3" font-family="Times,serif" font-size="14.00">(None, 32, 32, 8)</text>
<polyline fill="none" stroke="black" points="2988,-0.5 2988,-23.5 "/>
<text text-anchor="middle" x="3056.5" y="-8.3" font-family="Times,serif" font-size="14.00">(None, 32, 32, 8)</text>
</g>
<!-- 139944264444848&#45;&gt;139944264445232 -->
<g id="edge10" class="edge">
<title>139944264444848&#45;&gt;139944264445232</title>
<path fill="none" stroke="black" d="M2815.02,-35C2823.61,-35 2832.25,-35 2840.83,-35"/>
<polygon fill="black" stroke="black" points="2840.88,-38.5 2850.88,-35 2840.88,-31.5 2840.88,-38.5"/>
</g>
<!-- 139944264073664 -->
<g id="node12" class="node">
<title>139944264073664</title>
<polygon fill="none" stroke="black" points="3161,-0.5 3161,-69.5 3490,-69.5 3490,-0.5 3161,-0.5"/>
<text text-anchor="middle" x="3325.5" y="-54.3" font-family="Times,serif" font-size="14.00">batch_normalization_1: BatchNormalization</text>
<polyline fill="none" stroke="black" points="3161,-46.5 3490,-46.5 "/>
<text text-anchor="middle" x="3241" y="-31.3" font-family="Times,serif" font-size="14.00">input:</text>
<polyline fill="none" stroke="black" points="3321,-23.5 3321,-46.5 "/>
<text text-anchor="middle" x="3405.5" y="-31.3" font-family="Times,serif" font-size="14.00">output:</text>
<polyline fill="none" stroke="black" points="3161,-23.5 3490,-23.5 "/>
<text text-anchor="middle" x="3243" y="-8.3" font-family="Times,serif" font-size="14.00">(None, 32, 32, 8)</text>
<polyline fill="none" stroke="black" points="3325,-0.5 3325,-23.5 "/>
<text text-anchor="middle" x="3407.5" y="-8.3" font-family="Times,serif" font-size="14.00">(None, 32, 32, 8)</text>
</g>
<!-- 139944264445232&#45;&gt;139944264073664 -->
<g id="edge11" class="edge">
<title>139944264445232&#45;&gt;139944264073664</title>
<path fill="none" stroke="black" d="M3125.46,-35C3133.87,-35 3142.39,-35 3150.93,-35"/>
<polygon fill="black" stroke="black" points="3150.96,-38.5 3160.96,-35 3150.96,-31.5 3150.96,-38.5"/>
</g>
<!-- 139944264074768 -->
<g id="node13" class="node">
<title>139944264074768</title>
<polygon fill="none" stroke="black" points="3526,-0.5 3526,-69.5 3800,-69.5 3800,-0.5 3526,-0.5"/>
<text text-anchor="middle" x="3663" y="-54.3" font-family="Times,serif" font-size="14.00">dropout_1: Dropout</text>
<polyline fill="none" stroke="black" points="3526,-46.5 3800,-46.5 "/>
<text text-anchor="middle" x="3592" y="-31.3" font-family="Times,serif" font-size="14.00">input:</text>
<polyline fill="none" stroke="black" points="3658,-23.5 3658,-46.5 "/>
<text text-anchor="middle" x="3729" y="-31.3" font-family="Times,serif" font-size="14.00">output:</text>
<polyline fill="none" stroke="black" points="3526,-23.5 3800,-23.5 "/>
<text text-anchor="middle" x="3594.5" y="-8.3" font-family="Times,serif" font-size="14.00">(None, 32, 32, 8)</text>
<polyline fill="none" stroke="black" points="3663,-0.5 3663,-23.5 "/>
<text text-anchor="middle" x="3731.5" y="-8.3" font-family="Times,serif" font-size="14.00">(None, 32, 32, 8)</text>
</g>
<!-- 139944264073664&#45;&gt;139944264074768 -->
<g id="edge12" class="edge">
<title>139944264073664&#45;&gt;139944264074768</title>
<path fill="none" stroke="black" d="M3490.32,-35C3498.71,-35 3507.12,-35 3515.46,-35"/>
<polygon fill="black" stroke="black" points="3515.59,-38.5 3525.59,-35 3515.59,-31.5 3515.59,-38.5"/>
</g>
<!-- 139944264074960 -->
<g id="node14" class="node">
<title>139944264074960</title>
<polygon fill="none" stroke="black" points="3836,-0.5 3836,-69.5 4110,-69.5 4110,-0.5 3836,-0.5"/>
<text text-anchor="middle" x="3973" y="-54.3" font-family="Times,serif" font-size="14.00">conv2d: Conv2D</text>
<polyline fill="none" stroke="black" points="3836,-46.5 4110,-46.5 "/>
<text text-anchor="middle" x="3902" y="-31.3" font-family="Times,serif" font-size="14.00">input:</text>
<polyline fill="none" stroke="black" points="3968,-23.5 3968,-46.5 "/>
<text text-anchor="middle" x="4039" y="-31.3" font-family="Times,serif" font-size="14.00">output:</text>
<polyline fill="none" stroke="black" points="3836,-23.5 4110,-23.5 "/>
<text text-anchor="middle" x="3904.5" y="-8.3" font-family="Times,serif" font-size="14.00">(None, 32, 32, 8)</text>
<polyline fill="none" stroke="black" points="3973,-0.5 3973,-23.5 "/>
<text text-anchor="middle" x="4041.5" y="-8.3" font-family="Times,serif" font-size="14.00">(None, 16, 16, 4)</text>
</g>
<!-- 139944264074768&#45;&gt;139944264074960 -->
<g id="edge13" class="edge">
<title>139944264074768&#45;&gt;139944264074960</title>
<path fill="none" stroke="black" d="M3800.44,-35C3808.79,-35 3817.21,-35 3825.6,-35"/>
<polygon fill="black" stroke="black" points="3825.81,-38.5 3835.81,-35 3825.81,-31.5 3825.81,-38.5"/>
</g>
<!-- 139944264076160 -->
<g id="node15" class="node">
<title>139944264076160</title>
<polygon fill="none" stroke="black" points="4146,-0.5 4146,-69.5 4420,-69.5 4420,-0.5 4146,-0.5"/>
<text text-anchor="middle" x="4283" y="-54.3" font-family="Times,serif" font-size="14.00">activation_3: Activation</text>
<polyline fill="none" stroke="black" points="4146,-46.5 4420,-46.5 "/>
<text text-anchor="middle" x="4212" y="-31.3" font-family="Times,serif" font-size="14.00">input:</text>
<polyline fill="none" stroke="black" points="4278,-23.5 4278,-46.5 "/>
<text text-anchor="middle" x="4349" y="-31.3" font-family="Times,serif" font-size="14.00">output:</text>
<polyline fill="none" stroke="black" points="4146,-23.5 4420,-23.5 "/>
<text text-anchor="middle" x="4214.5" y="-8.3" font-family="Times,serif" font-size="14.00">(None, 16, 16, 4)</text>
<polyline fill="none" stroke="black" points="4283,-0.5 4283,-23.5 "/>
<text text-anchor="middle" x="4351.5" y="-8.3" font-family="Times,serif" font-size="14.00">(None, 16, 16, 4)</text>
</g>
<!-- 139944264074960&#45;&gt;139944264076160 -->
<g id="edge14" class="edge">
<title>139944264074960&#45;&gt;139944264076160</title>
<path fill="none" stroke="black" d="M4110.44,-35C4118.79,-35 4127.21,-35 4135.6,-35"/>
<polygon fill="black" stroke="black" points="4135.81,-38.5 4145.81,-35 4135.81,-31.5 4135.81,-38.5"/>
</g>
<!-- 139944264076304 -->
<g id="node16" class="node">
<title>139944264076304</title>
<polygon fill="none" stroke="black" points="4456,-0.5 4456,-69.5 4785,-69.5 4785,-0.5 4456,-0.5"/>
<text text-anchor="middle" x="4620.5" y="-54.3" font-family="Times,serif" font-size="14.00">batch_normalization_2: BatchNormalization</text>
<polyline fill="none" stroke="black" points="4456,-46.5 4785,-46.5 "/>
<text text-anchor="middle" x="4536" y="-31.3" font-family="Times,serif" font-size="14.00">input:</text>
<polyline fill="none" stroke="black" points="4616,-23.5 4616,-46.5 "/>
<text text-anchor="middle" x="4700.5" y="-31.3" font-family="Times,serif" font-size="14.00">output:</text>
<polyline fill="none" stroke="black" points="4456,-23.5 4785,-23.5 "/>
<text text-anchor="middle" x="4538" y="-8.3" font-family="Times,serif" font-size="14.00">(None, 16, 16, 4)</text>
<polyline fill="none" stroke="black" points="4620,-0.5 4620,-23.5 "/>
<text text-anchor="middle" x="4702.5" y="-8.3" font-family="Times,serif" font-size="14.00">(None, 16, 16, 4)</text>
</g>
<!-- 139944264076160&#45;&gt;139944264076304 -->
<g id="edge15" class="edge">
<title>139944264076160&#45;&gt;139944264076304</title>
<path fill="none" stroke="black" d="M4420.46,-35C4428.87,-35 4437.39,-35 4445.93,-35"/>
<polygon fill="black" stroke="black" points="4445.96,-38.5 4455.96,-35 4445.96,-31.5 4445.96,-38.5"/>
</g>
<!-- 139944264076592 -->
<g id="node17" class="node">
<title>139944264076592</title>
<polygon fill="none" stroke="black" points="4821,-0.5 4821,-69.5 5095,-69.5 5095,-0.5 4821,-0.5"/>
<text text-anchor="middle" x="4958" y="-54.3" font-family="Times,serif" font-size="14.00">dropout_2: Dropout</text>
<polyline fill="none" stroke="black" points="4821,-46.5 5095,-46.5 "/>
<text text-anchor="middle" x="4887" y="-31.3" font-family="Times,serif" font-size="14.00">input:</text>
<polyline fill="none" stroke="black" points="4953,-23.5 4953,-46.5 "/>
<text text-anchor="middle" x="5024" y="-31.3" font-family="Times,serif" font-size="14.00">output:</text>
<polyline fill="none" stroke="black" points="4821,-23.5 5095,-23.5 "/>
<text text-anchor="middle" x="4889.5" y="-8.3" font-family="Times,serif" font-size="14.00">(None, 16, 16, 4)</text>
<polyline fill="none" stroke="black" points="4958,-0.5 4958,-23.5 "/>
<text text-anchor="middle" x="5026.5" y="-8.3" font-family="Times,serif" font-size="14.00">(None, 16, 16, 4)</text>
</g>
<!-- 139944264076304&#45;&gt;139944264076592 -->
<g id="edge16" class="edge">
<title>139944264076304&#45;&gt;139944264076592</title>
<path fill="none" stroke="black" d="M4785.32,-35C4793.71,-35 4802.12,-35 4810.46,-35"/>
<polygon fill="black" stroke="black" points="4810.59,-38.5 4820.59,-35 4810.59,-31.5 4810.59,-38.5"/>
</g>
<!-- 139944264061280 -->
<g id="node18" class="node">
<title>139944264061280</title>
<polygon fill="none" stroke="black" points="5131,-0.5 5131,-69.5 5378,-69.5 5378,-0.5 5131,-0.5"/>
<text text-anchor="middle" x="5254.5" y="-54.3" font-family="Times,serif" font-size="14.00">flatten_1: Flatten</text>
<polyline fill="none" stroke="black" points="5131,-46.5 5378,-46.5 "/>
<text text-anchor="middle" x="5190.5" y="-31.3" font-family="Times,serif" font-size="14.00">input:</text>
<polyline fill="none" stroke="black" points="5250,-23.5 5250,-46.5 "/>
<text text-anchor="middle" x="5314" y="-31.3" font-family="Times,serif" font-size="14.00">output:</text>
<polyline fill="none" stroke="black" points="5131,-23.5 5378,-23.5 "/>
<text text-anchor="middle" x="5199.5" y="-8.3" font-family="Times,serif" font-size="14.00">(None, 16, 16, 4)</text>
<polyline fill="none" stroke="black" points="5268,-0.5 5268,-23.5 "/>
<text text-anchor="middle" x="5323" y="-8.3" font-family="Times,serif" font-size="14.00">(None, 1024)</text>
</g>
<!-- 139944264076592&#45;&gt;139944264061280 -->
<g id="edge17" class="edge">
<title>139944264076592&#45;&gt;139944264061280</title>
<path fill="none" stroke="black" d="M5095.04,-35C5103.51,-35 5112.02,-35 5120.47,-35"/>
<polygon fill="black" stroke="black" points="5120.74,-38.5 5130.74,-35 5120.74,-31.5 5120.74,-38.5"/>
</g>
<!-- 139944264061664 -->
<g id="node19" class="node">
<title>139944264061664</title>
<polygon fill="none" stroke="black" points="5414,-0.5 5414,-69.5 5625,-69.5 5625,-0.5 5414,-0.5"/>
<text text-anchor="middle" x="5519.5" y="-54.3" font-family="Times,serif" font-size="14.00">dense_1: Dense</text>
<polyline fill="none" stroke="black" points="5414,-46.5 5625,-46.5 "/>
<text text-anchor="middle" x="5464.5" y="-31.3" font-family="Times,serif" font-size="14.00">input:</text>
<polyline fill="none" stroke="black" points="5515,-23.5 5515,-46.5 "/>
<text text-anchor="middle" x="5570" y="-31.3" font-family="Times,serif" font-size="14.00">output:</text>
<polyline fill="none" stroke="black" points="5414,-23.5 5625,-23.5 "/>
<text text-anchor="middle" x="5469" y="-8.3" font-family="Times,serif" font-size="14.00">(None, 1024)</text>
<polyline fill="none" stroke="black" points="5524,-0.5 5524,-23.5 "/>
<text text-anchor="middle" x="5574.5" y="-8.3" font-family="Times,serif" font-size="14.00">(None, 128)</text>
</g>
<!-- 139944264061280&#45;&gt;139944264061664 -->
<g id="edge18" class="edge">
<title>139944264061280&#45;&gt;139944264061664</title>
<path fill="none" stroke="black" d="M5378.15,-35C5386.62,-35 5395.14,-35 5403.57,-35"/>
<polygon fill="black" stroke="black" points="5403.8,-38.5 5413.8,-35 5403.8,-31.5 5403.8,-38.5"/>
</g>
<!-- 139944264062384 -->
<g id="node20" class="node">
<title>139944264062384</title>
<polygon fill="none" stroke="black" points="5661,-0.5 5661,-69.5 5863,-69.5 5863,-0.5 5661,-0.5"/>
<text text-anchor="middle" x="5762" y="-54.3" font-family="Times,serif" font-size="14.00">activation_4: Activation</text>
<polyline fill="none" stroke="black" points="5661,-46.5 5863,-46.5 "/>
<text text-anchor="middle" x="5709" y="-31.3" font-family="Times,serif" font-size="14.00">input:</text>
<polyline fill="none" stroke="black" points="5757,-23.5 5757,-46.5 "/>
<text text-anchor="middle" x="5810" y="-31.3" font-family="Times,serif" font-size="14.00">output:</text>
<polyline fill="none" stroke="black" points="5661,-23.5 5863,-23.5 "/>
<text text-anchor="middle" x="5711.5" y="-8.3" font-family="Times,serif" font-size="14.00">(None, 128)</text>
<polyline fill="none" stroke="black" points="5762,-0.5 5762,-23.5 "/>
<text text-anchor="middle" x="5812.5" y="-8.3" font-family="Times,serif" font-size="14.00">(None, 128)</text>
</g>
<!-- 139944264061664&#45;&gt;139944264062384 -->
<g id="edge19" class="edge">
<title>139944264061664&#45;&gt;139944264062384</title>
<path fill="none" stroke="black" d="M5625.29,-35C5633.66,-35 5642.13,-35 5650.53,-35"/>
<polygon fill="black" stroke="black" points="5650.75,-38.5 5660.75,-35 5650.75,-31.5 5650.75,-38.5"/>
</g>
<!-- 139944264062624 -->
<g id="node21" class="node">
<title>139944264062624</title>
<polygon fill="none" stroke="black" points="5899,-0.5 5899,-69.5 6119,-69.5 6119,-0.5 5899,-0.5"/>
<text text-anchor="middle" x="6009" y="-54.3" font-family="Times,serif" font-size="14.00">reshape_1: Reshape</text>
<polyline fill="none" stroke="black" points="5899,-46.5 6119,-46.5 "/>
<text text-anchor="middle" x="5951.5" y="-31.3" font-family="Times,serif" font-size="14.00">input:</text>
<polyline fill="none" stroke="black" points="6004,-23.5 6004,-46.5 "/>
<text text-anchor="middle" x="6061.5" y="-31.3" font-family="Times,serif" font-size="14.00">output:</text>
<polyline fill="none" stroke="black" points="5899,-23.5 6119,-23.5 "/>
<text text-anchor="middle" x="5949.5" y="-8.3" font-family="Times,serif" font-size="14.00">(None, 128)</text>
<polyline fill="none" stroke="black" points="6000,-0.5 6000,-23.5 "/>
<text text-anchor="middle" x="6059.5" y="-8.3" font-family="Times,serif" font-size="14.00">(None, 8, 8, 2)</text>
</g>
<!-- 139944264062384&#45;&gt;139944264062624 -->
<g id="edge20" class="edge">
<title>139944264062384&#45;&gt;139944264062624</title>
<path fill="none" stroke="black" d="M5863,-35C5871.47,-35 5880.08,-35 5888.67,-35"/>
<polygon fill="black" stroke="black" points="5888.74,-38.5 5898.74,-35 5888.74,-31.5 5888.74,-38.5"/>
</g>
</g>
</svg>
