<?xml version="1.0" encoding="UTF-8" standalone="no"?>
<!DOCTYPE svg PUBLIC "-//W3C//DTD SVG 1.1//EN"
 "http://www.w3.org/Graphics/SVG/1.1/DTD/svg11.dtd">
<!-- Generated by graphviz version 2.49.3 (0)
 -->
<!-- Title: G Pages: 1 -->
<svg width="542pt" height="1715pt"
 viewBox="0.00 0.00 542.00 1715.00" xmlns="http://www.w3.org/2000/svg" xmlns:xlink="http://www.w3.org/1999/xlink">
<g id="graph0" class="graph" transform="scale(1 1) rotate(0) translate(4 1711)">
<title>G</title>
<polygon fill="white" stroke="transparent" points="-4,4 -4,-1711 538,-1711 538,4 -4,4"/>
<!-- 140081640094544 -->
<g id="node1" class="node">
<title>140081640094544</title>
<polygon fill="none" stroke="black" points="31,-1660.5 31,-1706.5 503,-1706.5 503,-1660.5 31,-1660.5"/>
<text text-anchor="middle" x="177.5" y="-1679.8" font-family="Times,serif" font-size="14.00">batch_normalization_input: InputLayer</text>
<polyline fill="none" stroke="black" points="324,-1660.5 324,-1706.5 "/>
<text text-anchor="middle" x="358" y="-1691.3" font-family="Times,serif" font-size="14.00">input:</text>
<polyline fill="none" stroke="black" points="324,-1683.5 392,-1683.5 "/>
<text text-anchor="middle" x="358" y="-1668.3" font-family="Times,serif" font-size="14.00">output:</text>
<polyline fill="none" stroke="black" points="392,-1660.5 392,-1706.5 "/>
<text text-anchor="middle" x="447.5" y="-1691.3" font-family="Times,serif" font-size="14.00">[(None, 8, 8)]</text>
<polyline fill="none" stroke="black" points="392,-1683.5 503,-1683.5 "/>
<text text-anchor="middle" x="447.5" y="-1668.3" font-family="Times,serif" font-size="14.00">[(None, 8, 8)]</text>
</g>
<!-- 140085403904512 -->
<g id="node2" class="node">
<title>140085403904512</title>
<polygon fill="none" stroke="black" points="26,-1577.5 26,-1623.5 508,-1623.5 508,-1577.5 26,-1577.5"/>
<text text-anchor="middle" x="182.5" y="-1596.8" font-family="Times,serif" font-size="14.00">batch_normalization: BatchNormalization</text>
<polyline fill="none" stroke="black" points="339,-1577.5 339,-1623.5 "/>
<text text-anchor="middle" x="373" y="-1608.3" font-family="Times,serif" font-size="14.00">input:</text>
<polyline fill="none" stroke="black" points="339,-1600.5 407,-1600.5 "/>
<text text-anchor="middle" x="373" y="-1585.3" font-family="Times,serif" font-size="14.00">output:</text>
<polyline fill="none" stroke="black" points="407,-1577.5 407,-1623.5 "/>
<text text-anchor="middle" x="457.5" y="-1608.3" font-family="Times,serif" font-size="14.00">(None, 8, 8)</text>
<polyline fill="none" stroke="black" points="407,-1600.5 508,-1600.5 "/>
<text text-anchor="middle" x="457.5" y="-1585.3" font-family="Times,serif" font-size="14.00">(None, 8, 8)</text>
</g>
<!-- 140081640094544&#45;&gt;140085403904512 -->
<g id="edge1" class="edge">
<title>140081640094544&#45;&gt;140085403904512</title>
<path fill="none" stroke="black" d="M267,-1660.37C267,-1652.15 267,-1642.66 267,-1633.73"/>
<polygon fill="black" stroke="black" points="270.5,-1633.61 267,-1623.61 263.5,-1633.61 270.5,-1633.61"/>
</g>
<!-- 140082774523568 -->
<g id="node3" class="node">
<title>140082774523568</title>
<polygon fill="none" stroke="black" points="120.5,-1494.5 120.5,-1540.5 413.5,-1540.5 413.5,-1494.5 120.5,-1494.5"/>
<text text-anchor="middle" x="182.5" y="-1513.8" font-family="Times,serif" font-size="14.00">flatten: Flatten</text>
<polyline fill="none" stroke="black" points="244.5,-1494.5 244.5,-1540.5 "/>
<text text-anchor="middle" x="278.5" y="-1525.3" font-family="Times,serif" font-size="14.00">input:</text>
<polyline fill="none" stroke="black" points="244.5,-1517.5 312.5,-1517.5 "/>
<text text-anchor="middle" x="278.5" y="-1502.3" font-family="Times,serif" font-size="14.00">output:</text>
<polyline fill="none" stroke="black" points="312.5,-1494.5 312.5,-1540.5 "/>
<text text-anchor="middle" x="363" y="-1525.3" font-family="Times,serif" font-size="14.00">(None, 8, 8)</text>
<polyline fill="none" stroke="black" points="312.5,-1517.5 413.5,-1517.5 "/>
<text text-anchor="middle" x="363" y="-1502.3" font-family="Times,serif" font-size="14.00">(None, 64)</text>
</g>
<!-- 140085403904512&#45;&gt;140082774523568 -->
<g id="edge2" class="edge">
<title>140085403904512&#45;&gt;140082774523568</title>
<path fill="none" stroke="black" d="M267,-1577.37C267,-1569.15 267,-1559.66 267,-1550.73"/>
<polygon fill="black" stroke="black" points="270.5,-1550.61 267,-1540.61 263.5,-1550.61 270.5,-1550.61"/>
</g>
<!-- 140082774523808 -->
<g id="node4" class="node">
<title>140082774523808</title>
<polygon fill="none" stroke="black" points="126.5,-1411.5 126.5,-1457.5 407.5,-1457.5 407.5,-1411.5 126.5,-1411.5"/>
<text text-anchor="middle" x="182.5" y="-1430.8" font-family="Times,serif" font-size="14.00">dense: Dense</text>
<polyline fill="none" stroke="black" points="238.5,-1411.5 238.5,-1457.5 "/>
<text text-anchor="middle" x="272.5" y="-1442.3" font-family="Times,serif" font-size="14.00">input:</text>
<polyline fill="none" stroke="black" points="238.5,-1434.5 306.5,-1434.5 "/>
<text text-anchor="middle" x="272.5" y="-1419.3" font-family="Times,serif" font-size="14.00">output:</text>
<polyline fill="none" stroke="black" points="306.5,-1411.5 306.5,-1457.5 "/>
<text text-anchor="middle" x="357" y="-1442.3" font-family="Times,serif" font-size="14.00">(None, 64)</text>
<polyline fill="none" stroke="black" points="306.5,-1434.5 407.5,-1434.5 "/>
<text text-anchor="middle" x="357" y="-1419.3" font-family="Times,serif" font-size="14.00">(None, 256)</text>
</g>
<!-- 140082774523568&#45;&gt;140082774523808 -->
<g id="edge3" class="edge">
<title>140082774523568&#45;&gt;140082774523808</title>
<path fill="none" stroke="black" d="M267,-1494.37C267,-1486.15 267,-1476.66 267,-1467.73"/>
<polygon fill="black" stroke="black" points="270.5,-1467.61 267,-1457.61 263.5,-1467.61 270.5,-1467.61"/>
</g>
<!-- 140082178286256 -->
<g id="node5" class="node">
<title>140082178286256</title>
<polygon fill="none" stroke="black" points="98.5,-1328.5 98.5,-1374.5 435.5,-1374.5 435.5,-1328.5 98.5,-1328.5"/>
<text text-anchor="middle" x="182.5" y="-1347.8" font-family="Times,serif" font-size="14.00">activation: Activation</text>
<polyline fill="none" stroke="black" points="266.5,-1328.5 266.5,-1374.5 "/>
<text text-anchor="middle" x="300.5" y="-1359.3" font-family="Times,serif" font-size="14.00">input:</text>
<polyline fill="none" stroke="black" points="266.5,-1351.5 334.5,-1351.5 "/>
<text text-anchor="middle" x="300.5" y="-1336.3" font-family="Times,serif" font-size="14.00">output:</text>
<polyline fill="none" stroke="black" points="334.5,-1328.5 334.5,-1374.5 "/>
<text text-anchor="middle" x="385" y="-1359.3" font-family="Times,serif" font-size="14.00">(None, 256)</text>
<polyline fill="none" stroke="black" points="334.5,-1351.5 435.5,-1351.5 "/>
<text text-anchor="middle" x="385" y="-1336.3" font-family="Times,serif" font-size="14.00">(None, 256)</text>
</g>
<!-- 140082774523808&#45;&gt;140082178286256 -->
<g id="edge4" class="edge">
<title>140082774523808&#45;&gt;140082178286256</title>
<path fill="none" stroke="black" d="M267,-1411.37C267,-1403.15 267,-1393.66 267,-1384.73"/>
<polygon fill="black" stroke="black" points="270.5,-1384.61 267,-1374.61 263.5,-1384.61 270.5,-1384.61"/>
</g>
<!-- 140082178286496 -->
<g id="node6" class="node">
<title>140082178286496</title>
<polygon fill="none" stroke="black" points="112.5,-1245.5 112.5,-1291.5 421.5,-1291.5 421.5,-1245.5 112.5,-1245.5"/>
<text text-anchor="middle" x="182.5" y="-1264.8" font-family="Times,serif" font-size="14.00">dropout: Dropout</text>
<polyline fill="none" stroke="black" points="252.5,-1245.5 252.5,-1291.5 "/>
<text text-anchor="middle" x="286.5" y="-1276.3" font-family="Times,serif" font-size="14.00">input:</text>
<polyline fill="none" stroke="black" points="252.5,-1268.5 320.5,-1268.5 "/>
<text text-anchor="middle" x="286.5" y="-1253.3" font-family="Times,serif" font-size="14.00">output:</text>
<polyline fill="none" stroke="black" points="320.5,-1245.5 320.5,-1291.5 "/>
<text text-anchor="middle" x="371" y="-1276.3" font-family="Times,serif" font-size="14.00">(None, 256)</text>
<polyline fill="none" stroke="black" points="320.5,-1268.5 421.5,-1268.5 "/>
<text text-anchor="middle" x="371" y="-1253.3" font-family="Times,serif" font-size="14.00">(None, 256)</text>
</g>
<!-- 140082178286256&#45;&gt;140082178286496 -->
<g id="edge5" class="edge">
<title>140082178286256&#45;&gt;140082178286496</title>
<path fill="none" stroke="black" d="M267,-1328.37C267,-1320.15 267,-1310.66 267,-1301.73"/>
<polygon fill="black" stroke="black" points="270.5,-1301.61 267,-1291.61 263.5,-1301.61 270.5,-1301.61"/>
</g>
<!-- 140082178286976 -->
<g id="node7" class="node">
<title>140082178286976</title>
<polygon fill="none" stroke="black" points="93,-1162.5 93,-1208.5 441,-1208.5 441,-1162.5 93,-1162.5"/>
<text text-anchor="middle" x="164.5" y="-1181.8" font-family="Times,serif" font-size="14.00">reshape: Reshape</text>
<polyline fill="none" stroke="black" points="236,-1162.5 236,-1208.5 "/>
<text text-anchor="middle" x="270" y="-1193.3" font-family="Times,serif" font-size="14.00">input:</text>
<polyline fill="none" stroke="black" points="236,-1185.5 304,-1185.5 "/>
<text text-anchor="middle" x="270" y="-1170.3" font-family="Times,serif" font-size="14.00">output:</text>
<polyline fill="none" stroke="black" points="304,-1162.5 304,-1208.5 "/>
<text text-anchor="middle" x="372.5" y="-1193.3" font-family="Times,serif" font-size="14.00">(None, 256)</text>
<polyline fill="none" stroke="black" points="304,-1185.5 441,-1185.5 "/>
<text text-anchor="middle" x="372.5" y="-1170.3" font-family="Times,serif" font-size="14.00">(None, 16, 16, 1)</text>
</g>
<!-- 140082178286496&#45;&gt;140082178286976 -->
<g id="edge6" class="edge">
<title>140082178286496&#45;&gt;140082178286976</title>
<path fill="none" stroke="black" d="M267,-1245.37C267,-1237.15 267,-1227.66 267,-1218.73"/>
<polygon fill="black" stroke="black" points="270.5,-1218.61 267,-1208.61 263.5,-1218.61 270.5,-1218.61"/>
</g>
<!-- 140082178287312 -->
<g id="node8" class="node">
<title>140082178287312</title>
<polygon fill="none" stroke="black" points="22.5,-1079.5 22.5,-1125.5 511.5,-1125.5 511.5,-1079.5 22.5,-1079.5"/>
<text text-anchor="middle" x="164.5" y="-1098.8" font-family="Times,serif" font-size="14.00">conv2d_transpose: Conv2DTranspose</text>
<polyline fill="none" stroke="black" points="306.5,-1079.5 306.5,-1125.5 "/>
<text text-anchor="middle" x="340.5" y="-1110.3" font-family="Times,serif" font-size="14.00">input:</text>
<polyline fill="none" stroke="black" points="306.5,-1102.5 374.5,-1102.5 "/>
<text text-anchor="middle" x="340.5" y="-1087.3" font-family="Times,serif" font-size="14.00">output:</text>
<polyline fill="none" stroke="black" points="374.5,-1079.5 374.5,-1125.5 "/>
<text text-anchor="middle" x="443" y="-1110.3" font-family="Times,serif" font-size="14.00">(None, 16, 16, 1)</text>
<polyline fill="none" stroke="black" points="374.5,-1102.5 511.5,-1102.5 "/>
<text text-anchor="middle" x="443" y="-1087.3" font-family="Times,serif" font-size="14.00">(None, 24, 24, 2)</text>
</g>
<!-- 140082178286976&#45;&gt;140082178287312 -->
<g id="edge7" class="edge">
<title>140082178286976&#45;&gt;140082178287312</title>
<path fill="none" stroke="black" d="M267,-1162.37C267,-1154.15 267,-1144.66 267,-1135.73"/>
<polygon fill="black" stroke="black" points="270.5,-1135.61 267,-1125.61 263.5,-1135.61 270.5,-1135.61"/>
</g>
<!-- 140082178288464 -->
<g id="node9" class="node">
<title>140082178288464</title>
<polygon fill="none" stroke="black" points="72.5,-996.5 72.5,-1042.5 461.5,-1042.5 461.5,-996.5 72.5,-996.5"/>
<text text-anchor="middle" x="164.5" y="-1015.8" font-family="Times,serif" font-size="14.00">activation_1: Activation</text>
<polyline fill="none" stroke="black" points="256.5,-996.5 256.5,-1042.5 "/>
<text text-anchor="middle" x="290.5" y="-1027.3" font-family="Times,serif" font-size="14.00">input:</text>
<polyline fill="none" stroke="black" points="256.5,-1019.5 324.5,-1019.5 "/>
<text text-anchor="middle" x="290.5" y="-1004.3" font-family="Times,serif" font-size="14.00">output:</text>
<polyline fill="none" stroke="black" points="324.5,-996.5 324.5,-1042.5 "/>
<text text-anchor="middle" x="393" y="-1027.3" font-family="Times,serif" font-size="14.00">(None, 24, 24, 2)</text>
<polyline fill="none" stroke="black" points="324.5,-1019.5 461.5,-1019.5 "/>
<text text-anchor="middle" x="393" y="-1004.3" font-family="Times,serif" font-size="14.00">(None, 24, 24, 2)</text>
</g>
<!-- 140082178287312&#45;&gt;140082178288464 -->
<g id="edge8" class="edge">
<title>140082178287312&#45;&gt;140082178288464</title>
<path fill="none" stroke="black" d="M267,-1079.37C267,-1071.15 267,-1061.66 267,-1052.73"/>
<polygon fill="black" stroke="black" points="270.5,-1052.61 267,-1042.61 263.5,-1052.61 270.5,-1052.61"/>
</g>
<!-- 140082178288560 -->
<g id="node10" class="node">
<title>140082178288560</title>
<polygon fill="none" stroke="black" points="15,-913.5 15,-959.5 519,-959.5 519,-913.5 15,-913.5"/>
<text text-anchor="middle" x="164.5" y="-932.8" font-family="Times,serif" font-size="14.00">conv2d_transpose_1: Conv2DTranspose</text>
<polyline fill="none" stroke="black" points="314,-913.5 314,-959.5 "/>
<text text-anchor="middle" x="348" y="-944.3" font-family="Times,serif" font-size="14.00">input:</text>
<polyline fill="none" stroke="black" points="314,-936.5 382,-936.5 "/>
<text text-anchor="middle" x="348" y="-921.3" font-family="Times,serif" font-size="14.00">output:</text>
<polyline fill="none" stroke="black" points="382,-913.5 382,-959.5 "/>
<text text-anchor="middle" x="450.5" y="-944.3" font-family="Times,serif" font-size="14.00">(None, 24, 24, 2)</text>
<polyline fill="none" stroke="black" points="382,-936.5 519,-936.5 "/>
<text text-anchor="middle" x="450.5" y="-921.3" font-family="Times,serif" font-size="14.00">(None, 32, 32, 8)</text>
</g>
<!-- 140082178288464&#45;&gt;140082178288560 -->
<g id="edge9" class="edge">
<title>140082178288464&#45;&gt;140082178288560</title>
<path fill="none" stroke="black" d="M267,-996.37C267,-988.15 267,-978.66 267,-969.73"/>
<polygon fill="black" stroke="black" points="270.5,-969.61 267,-959.61 263.5,-969.61 270.5,-969.61"/>
</g>
<!-- 140082178288944 -->
<g id="node11" class="node">
<title>140082178288944</title>
<polygon fill="none" stroke="black" points="72.5,-830.5 72.5,-876.5 461.5,-876.5 461.5,-830.5 72.5,-830.5"/>
<text text-anchor="middle" x="164.5" y="-849.8" font-family="Times,serif" font-size="14.00">activation_2: Activation</text>
<polyline fill="none" stroke="black" points="256.5,-830.5 256.5,-876.5 "/>
<text text-anchor="middle" x="290.5" y="-861.3" font-family="Times,serif" font-size="14.00">input:</text>
<polyline fill="none" stroke="black" points="256.5,-853.5 324.5,-853.5 "/>
<text text-anchor="middle" x="290.5" y="-838.3" font-family="Times,serif" font-size="14.00">output:</text>
<polyline fill="none" stroke="black" points="324.5,-830.5 324.5,-876.5 "/>
<text text-anchor="middle" x="393" y="-861.3" font-family="Times,serif" font-size="14.00">(None, 32, 32, 8)</text>
<polyline fill="none" stroke="black" points="324.5,-853.5 461.5,-853.5 "/>
<text text-anchor="middle" x="393" y="-838.3" font-family="Times,serif" font-size="14.00">(None, 32, 32, 8)</text>
</g>
<!-- 140082178288560&#45;&gt;140082178288944 -->
<g id="edge10" class="edge">
<title>140082178288560&#45;&gt;140082178288944</title>
<path fill="none" stroke="black" d="M267,-913.37C267,-905.15 267,-895.66 267,-886.73"/>
<polygon fill="black" stroke="black" points="270.5,-886.61 267,-876.61 263.5,-886.61 270.5,-886.61"/>
</g>
<!-- 140082177917376 -->
<g id="node12" class="node">
<title>140082177917376</title>
<polygon fill="none" stroke="black" points="0,-747.5 0,-793.5 534,-793.5 534,-747.5 0,-747.5"/>
<text text-anchor="middle" x="164.5" y="-766.8" font-family="Times,serif" font-size="14.00">batch_normalization_1: BatchNormalization</text>
<polyline fill="none" stroke="black" points="329,-747.5 329,-793.5 "/>
<text text-anchor="middle" x="363" y="-778.3" font-family="Times,serif" font-size="14.00">input:</text>
<polyline fill="none" stroke="black" points="329,-770.5 397,-770.5 "/>
<text text-anchor="middle" x="363" y="-755.3" font-family="Times,serif" font-size="14.00">output:</text>
<polyline fill="none" stroke="black" points="397,-747.5 397,-793.5 "/>
<text text-anchor="middle" x="465.5" y="-778.3" font-family="Times,serif" font-size="14.00">(None, 32, 32, 8)</text>
<polyline fill="none" stroke="black" points="397,-770.5 534,-770.5 "/>
<text text-anchor="middle" x="465.5" y="-755.3" font-family="Times,serif" font-size="14.00">(None, 32, 32, 8)</text>
</g>
<!-- 140082178288944&#45;&gt;140082177917376 -->
<g id="edge11" class="edge">
<title>140082178288944&#45;&gt;140082177917376</title>
<path fill="none" stroke="black" d="M267,-830.37C267,-822.15 267,-812.66 267,-803.73"/>
<polygon fill="black" stroke="black" points="270.5,-803.61 267,-793.61 263.5,-803.61 270.5,-803.61"/>
</g>
<!-- 140082177918480 -->
<g id="node13" class="node">
<title>140082177918480</title>
<polygon fill="none" stroke="black" points="86.5,-664.5 86.5,-710.5 447.5,-710.5 447.5,-664.5 86.5,-664.5"/>
<text text-anchor="middle" x="164.5" y="-683.8" font-family="Times,serif" font-size="14.00">dropout_1: Dropout</text>
<polyline fill="none" stroke="black" points="242.5,-664.5 242.5,-710.5 "/>
<text text-anchor="middle" x="276.5" y="-695.3" font-family="Times,serif" font-size="14.00">input:</text>
<polyline fill="none" stroke="black" points="242.5,-687.5 310.5,-687.5 "/>
<text text-anchor="middle" x="276.5" y="-672.3" font-family="Times,serif" font-size="14.00">output:</text>
<polyline fill="none" stroke="black" points="310.5,-664.5 310.5,-710.5 "/>
<text text-anchor="middle" x="379" y="-695.3" font-family="Times,serif" font-size="14.00">(None, 32, 32, 8)</text>
<polyline fill="none" stroke="black" points="310.5,-687.5 447.5,-687.5 "/>
<text text-anchor="middle" x="379" y="-672.3" font-family="Times,serif" font-size="14.00">(None, 32, 32, 8)</text>
</g>
<!-- 140082177917376&#45;&gt;140082177918480 -->
<g id="edge12" class="edge">
<title>140082177917376&#45;&gt;140082177918480</title>
<path fill="none" stroke="black" d="M267,-747.37C267,-739.15 267,-729.66 267,-720.73"/>
<polygon fill="black" stroke="black" points="270.5,-720.61 267,-710.61 263.5,-720.61 270.5,-720.61"/>
</g>
<!-- 140082177918672 -->
<g id="node14" class="node">
<title>140082177918672</title>
<polygon fill="none" stroke="black" points="98,-581.5 98,-627.5 436,-627.5 436,-581.5 98,-581.5"/>
<text text-anchor="middle" x="164.5" y="-600.8" font-family="Times,serif" font-size="14.00">conv2d: Conv2D</text>
<polyline fill="none" stroke="black" points="231,-581.5 231,-627.5 "/>
<text text-anchor="middle" x="265" y="-612.3" font-family="Times,serif" font-size="14.00">input:</text>
<polyline fill="none" stroke="black" points="231,-604.5 299,-604.5 "/>
<text text-anchor="middle" x="265" y="-589.3" font-family="Times,serif" font-size="14.00">output:</text>
<polyline fill="none" stroke="black" points="299,-581.5 299,-627.5 "/>
<text text-anchor="middle" x="367.5" y="-612.3" font-family="Times,serif" font-size="14.00">(None, 32, 32, 8)</text>
<polyline fill="none" stroke="black" points="299,-604.5 436,-604.5 "/>
<text text-anchor="middle" x="367.5" y="-589.3" font-family="Times,serif" font-size="14.00">(None, 16, 16, 4)</text>
</g>
<!-- 140082177918480&#45;&gt;140082177918672 -->
<g id="edge13" class="edge">
<title>140082177918480&#45;&gt;140082177918672</title>
<path fill="none" stroke="black" d="M267,-664.37C267,-656.15 267,-646.66 267,-637.73"/>
<polygon fill="black" stroke="black" points="270.5,-637.61 267,-627.61 263.5,-637.61 270.5,-637.61"/>
</g>
<!-- 140082177919872 -->
<g id="node15" class="node">
<title>140082177919872</title>
<polygon fill="none" stroke="black" points="72.5,-498.5 72.5,-544.5 461.5,-544.5 461.5,-498.5 72.5,-498.5"/>
<text text-anchor="middle" x="164.5" y="-517.8" font-family="Times,serif" font-size="14.00">activation_3: Activation</text>
<polyline fill="none" stroke="black" points="256.5,-498.5 256.5,-544.5 "/>
<text text-anchor="middle" x="290.5" y="-529.3" font-family="Times,serif" font-size="14.00">input:</text>
<polyline fill="none" stroke="black" points="256.5,-521.5 324.5,-521.5 "/>
<text text-anchor="middle" x="290.5" y="-506.3" font-family="Times,serif" font-size="14.00">output:</text>
<polyline fill="none" stroke="black" points="324.5,-498.5 324.5,-544.5 "/>
<text text-anchor="middle" x="393" y="-529.3" font-family="Times,serif" font-size="14.00">(None, 16, 16, 4)</text>
<polyline fill="none" stroke="black" points="324.5,-521.5 461.5,-521.5 "/>
<text text-anchor="middle" x="393" y="-506.3" font-family="Times,serif" font-size="14.00">(None, 16, 16, 4)</text>
</g>
<!-- 140082177918672&#45;&gt;140082177919872 -->
<g id="edge14" class="edge">
<title>140082177918672&#45;&gt;140082177919872</title>
<path fill="none" stroke="black" d="M267,-581.37C267,-573.15 267,-563.66 267,-554.73"/>
<polygon fill="black" stroke="black" points="270.5,-554.61 267,-544.61 263.5,-554.61 270.5,-554.61"/>
</g>
<!-- 140082177920016 -->
<g id="node16" class="node">
<title>140082177920016</title>
<polygon fill="none" stroke="black" points="0,-415.5 0,-461.5 534,-461.5 534,-415.5 0,-415.5"/>
<text text-anchor="middle" x="164.5" y="-434.8" font-family="Times,serif" font-size="14.00">batch_normalization_2: BatchNormalization</text>
<polyline fill="none" stroke="black" points="329,-415.5 329,-461.5 "/>
<text text-anchor="middle" x="363" y="-446.3" font-family="Times,serif" font-size="14.00">input:</text>
<polyline fill="none" stroke="black" points="329,-438.5 397,-438.5 "/>
<text text-anchor="middle" x="363" y="-423.3" font-family="Times,serif" font-size="14.00">output:</text>
<polyline fill="none" stroke="black" points="397,-415.5 397,-461.5 "/>
<text text-anchor="middle" x="465.5" y="-446.3" font-family="Times,serif" font-size="14.00">(None, 16, 16, 4)</text>
<polyline fill="none" stroke="black" points="397,-438.5 534,-438.5 "/>
<text text-anchor="middle" x="465.5" y="-423.3" font-family="Times,serif" font-size="14.00">(None, 16, 16, 4)</text>
</g>
<!-- 140082177919872&#45;&gt;140082177920016 -->
<g id="edge15" class="edge">
<title>140082177919872&#45;&gt;140082177920016</title>
<path fill="none" stroke="black" d="M267,-498.37C267,-490.15 267,-480.66 267,-471.73"/>
<polygon fill="black" stroke="black" points="270.5,-471.61 267,-461.61 263.5,-471.61 270.5,-471.61"/>
</g>
<!-- 140082177920304 -->
<g id="node17" class="node">
<title>140082177920304</title>
<polygon fill="none" stroke="black" points="86.5,-332.5 86.5,-378.5 447.5,-378.5 447.5,-332.5 86.5,-332.5"/>
<text text-anchor="middle" x="164.5" y="-351.8" font-family="Times,serif" font-size="14.00">dropout_2: Dropout</text>
<polyline fill="none" stroke="black" points="242.5,-332.5 242.5,-378.5 "/>
<text text-anchor="middle" x="276.5" y="-363.3" font-family="Times,serif" font-size="14.00">input:</text>
<polyline fill="none" stroke="black" points="242.5,-355.5 310.5,-355.5 "/>
<text text-anchor="middle" x="276.5" y="-340.3" font-family="Times,serif" font-size="14.00">output:</text>
<polyline fill="none" stroke="black" points="310.5,-332.5 310.5,-378.5 "/>
<text text-anchor="middle" x="379" y="-363.3" font-family="Times,serif" font-size="14.00">(None, 16, 16, 4)</text>
<polyline fill="none" stroke="black" points="310.5,-355.5 447.5,-355.5 "/>
<text text-anchor="middle" x="379" y="-340.3" font-family="Times,serif" font-size="14.00">(None, 16, 16, 4)</text>
</g>
<!-- 140082177920016&#45;&gt;140082177920304 -->
<g id="edge16" class="edge">
<title>140082177920016&#45;&gt;140082177920304</title>
<path fill="none" stroke="black" d="M267,-415.37C267,-407.15 267,-397.66 267,-388.73"/>
<polygon fill="black" stroke="black" points="270.5,-388.61 267,-378.61 263.5,-388.61 270.5,-388.61"/>
</g>
<!-- 140082177900896 -->
<g id="node18" class="node">
<title>140082177900896</title>
<polygon fill="none" stroke="black" points="94.5,-249.5 94.5,-295.5 439.5,-295.5 439.5,-249.5 94.5,-249.5"/>
<text text-anchor="middle" x="164.5" y="-268.8" font-family="Times,serif" font-size="14.00">flatten_1: Flatten</text>
<polyline fill="none" stroke="black" points="234.5,-249.5 234.5,-295.5 "/>
<text text-anchor="middle" x="268.5" y="-280.3" font-family="Times,serif" font-size="14.00">input:</text>
<polyline fill="none" stroke="black" points="234.5,-272.5 302.5,-272.5 "/>
<text text-anchor="middle" x="268.5" y="-257.3" font-family="Times,serif" font-size="14.00">output:</text>
<polyline fill="none" stroke="black" points="302.5,-249.5 302.5,-295.5 "/>
<text text-anchor="middle" x="371" y="-280.3" font-family="Times,serif" font-size="14.00">(None, 16, 16, 4)</text>
<polyline fill="none" stroke="black" points="302.5,-272.5 439.5,-272.5 "/>
<text text-anchor="middle" x="371" y="-257.3" font-family="Times,serif" font-size="14.00">(None, 1024)</text>
</g>
<!-- 140082177920304&#45;&gt;140082177900896 -->
<g id="edge17" class="edge">
<title>140082177920304&#45;&gt;140082177900896</title>
<path fill="none" stroke="black" d="M267,-332.37C267,-324.15 267,-314.66 267,-305.73"/>
<polygon fill="black" stroke="black" points="270.5,-305.61 267,-295.61 263.5,-305.61 270.5,-305.61"/>
</g>
<!-- 140082177901280 -->
<g id="node19" class="node">
<title>140082177901280</title>
<polygon fill="none" stroke="black" points="114,-166.5 114,-212.5 420,-212.5 420,-166.5 114,-166.5"/>
<text text-anchor="middle" x="178" y="-185.8" font-family="Times,serif" font-size="14.00">dense_1: Dense</text>
<polyline fill="none" stroke="black" points="242,-166.5 242,-212.5 "/>
<text text-anchor="middle" x="276" y="-197.3" font-family="Times,serif" font-size="14.00">input:</text>
<polyline fill="none" stroke="black" points="242,-189.5 310,-189.5 "/>
<text text-anchor="middle" x="276" y="-174.3" font-family="Times,serif" font-size="14.00">output:</text>
<polyline fill="none" stroke="black" points="310,-166.5 310,-212.5 "/>
<text text-anchor="middle" x="365" y="-197.3" font-family="Times,serif" font-size="14.00">(None, 1024)</text>
<polyline fill="none" stroke="black" points="310,-189.5 420,-189.5 "/>
<text text-anchor="middle" x="365" y="-174.3" font-family="Times,serif" font-size="14.00">(None, 128)</text>
</g>
<!-- 140082177900896&#45;&gt;140082177901280 -->
<g id="edge18" class="edge">
<title>140082177900896&#45;&gt;140082177901280</title>
<path fill="none" stroke="black" d="M267,-249.37C267,-241.15 267,-231.66 267,-222.73"/>
<polygon fill="black" stroke="black" points="270.5,-222.61 267,-212.61 263.5,-222.61 270.5,-222.61"/>
</g>
<!-- 140082177902000 -->
<g id="node20" class="node">
<title>140082177902000</title>
<polygon fill="none" stroke="black" points="90.5,-83.5 90.5,-129.5 443.5,-129.5 443.5,-83.5 90.5,-83.5"/>
<text text-anchor="middle" x="182.5" y="-102.8" font-family="Times,serif" font-size="14.00">activation_4: Activation</text>
<polyline fill="none" stroke="black" points="274.5,-83.5 274.5,-129.5 "/>
<text text-anchor="middle" x="308.5" y="-114.3" font-family="Times,serif" font-size="14.00">input:</text>
<polyline fill="none" stroke="black" points="274.5,-106.5 342.5,-106.5 "/>
<text text-anchor="middle" x="308.5" y="-91.3" font-family="Times,serif" font-size="14.00">output:</text>
<polyline fill="none" stroke="black" points="342.5,-83.5 342.5,-129.5 "/>
<text text-anchor="middle" x="393" y="-114.3" font-family="Times,serif" font-size="14.00">(None, 128)</text>
<polyline fill="none" stroke="black" points="342.5,-106.5 443.5,-106.5 "/>
<text text-anchor="middle" x="393" y="-91.3" font-family="Times,serif" font-size="14.00">(None, 128)</text>
</g>
<!-- 140082177901280&#45;&gt;140082177902000 -->
<g id="edge19" class="edge">
<title>140082177901280&#45;&gt;140082177902000</title>
<path fill="none" stroke="black" d="M267,-166.37C267,-158.15 267,-148.66 267,-139.73"/>
<polygon fill="black" stroke="black" points="270.5,-139.61 267,-129.61 263.5,-139.61 270.5,-139.61"/>
</g>
<!-- 140082177902240 -->
<g id="node21" class="node">
<title>140082177902240</title>
<polygon fill="none" stroke="black" points="94,-0.5 94,-46.5 440,-46.5 440,-0.5 94,-0.5"/>
<text text-anchor="middle" x="173.5" y="-19.8" font-family="Times,serif" font-size="14.00">reshape_1: Reshape</text>
<polyline fill="none" stroke="black" points="253,-0.5 253,-46.5 "/>
<text text-anchor="middle" x="287" y="-31.3" font-family="Times,serif" font-size="14.00">input:</text>
<polyline fill="none" stroke="black" points="253,-23.5 321,-23.5 "/>
<text text-anchor="middle" x="287" y="-8.3" font-family="Times,serif" font-size="14.00">output:</text>
<polyline fill="none" stroke="black" points="321,-0.5 321,-46.5 "/>
<text text-anchor="middle" x="380.5" y="-31.3" font-family="Times,serif" font-size="14.00">(None, 128)</text>
<polyline fill="none" stroke="black" points="321,-23.5 440,-23.5 "/>
<text text-anchor="middle" x="380.5" y="-8.3" font-family="Times,serif" font-size="14.00">(None, 8, 8, 2)</text>
</g>
<!-- 140082177902000&#45;&gt;140082177902240 -->
<g id="edge20" class="edge">
<title>140082177902000&#45;&gt;140082177902240</title>
<path fill="none" stroke="black" d="M267,-83.37C267,-75.15 267,-65.66 267,-56.73"/>
<polygon fill="black" stroke="black" points="270.5,-56.61 267,-46.61 263.5,-56.61 270.5,-56.61"/>
</g>
</g>
</svg>
